<svg width="32" height="32" viewBox="0 0 32 32" fill="none" xmlns="http://www.w3.org/2000/svg">
<g clip-path="url(#clip0_2240_76)">
<rect width="32" height="32" rx="16" fill="white"/>
<path d="M16.3 26.36C15 26.36 13.78 26.24 12.64 26C11.5 25.78 10.49 25.41 9.61 24.89C8.75 24.37 8.07 23.69 7.57 22.85C7.07 21.99 6.82 20.94 6.82 19.7C6.82 19.62 6.82 19.53 6.82 19.43C6.82 19.33 6.83 19.25 6.85 19.19H12.04C12.04 19.25 12.03 19.33 12.01 19.43C12.01 19.51 12.01 19.58 12.01 19.64C12.01 20.28 12.17 20.8 12.49 21.2C12.83 21.58 13.3 21.86 13.9 22.04C14.5 22.2 15.2 22.28 16 22.28C16.44 22.28 16.85 22.26 17.23 22.22C17.61 22.18 17.95 22.11 18.25 22.01C18.55 21.91 18.81 21.79 19.03 21.65C19.27 21.49 19.44 21.31 19.54 21.11C19.66 20.89 19.72 20.64 19.72 20.36C19.72 19.9 19.54 19.52 19.18 19.22C18.84 18.92 18.37 18.67 17.77 18.47C17.19 18.27 16.53 18.08 15.79 17.9C15.05 17.72 14.28 17.53 13.48 17.33C12.68 17.13 11.91 16.88 11.17 16.58C10.43 16.28 9.76 15.9 9.16 15.44C8.58 14.98 8.11 14.41 7.75 13.73C7.41 13.03 7.24 12.19 7.24 11.21C7.24 10.13 7.47 9.2 7.93 8.42C8.39 7.62 9.02 6.97 9.82 6.47C10.64 5.97 11.58 5.61 12.64 5.39C13.7 5.15 14.83 5.03 16.03 5.03C17.21 5.03 18.31 5.15 19.33 5.39C20.37 5.63 21.29 6.01 22.09 6.53C22.89 7.03 23.51 7.67 23.95 8.45C24.41 9.21 24.65 10.13 24.67 11.21V11.57H19.51V11.36C19.51 10.9 19.38 10.5 19.12 10.16C18.88 9.8 18.51 9.52 18.01 9.32C17.51 9.1 16.89 8.99 16.15 8.99C15.41 8.99 14.78 9.06 14.26 9.2C13.76 9.34 13.37 9.54 13.09 9.8C12.83 10.06 12.7 10.37 12.7 10.73C12.7 11.17 12.87 11.53 13.21 11.81C13.57 12.09 14.05 12.33 14.65 12.53C15.25 12.73 15.92 12.92 16.66 13.1C17.4 13.26 18.16 13.44 18.94 13.64C19.74 13.82 20.51 14.06 21.25 14.36C21.99 14.64 22.66 15.01 23.26 15.47C23.86 15.91 24.33 16.46 24.67 17.12C25.03 17.78 25.21 18.58 25.21 19.52C25.21 21.16 24.82 22.48 24.04 23.48C23.28 24.48 22.22 25.21 20.86 25.67C19.52 26.13 18 26.36 16.3 26.36Z" fill="black"/>
</g>
<defs>
<clipPath id="clip0_2240_76">
<rect width="31.88" height="32" fill="white"/>
</clipPath>
</defs>
</svg>
