<svg width="1132" height="320" viewBox="0 0 1132 320" fill="none" xmlns="http://www.w3.org/2000/svg">
<path d="M195.8 241.76C185.833 241.76 176.48 240.84 167.74 239C159 237.313 151.257 234.477 144.51 230.49C137.917 226.503 132.703 221.29 128.87 214.85C125.037 208.257 123.12 200.207 123.12 190.7C123.12 190.087 123.12 189.397 123.12 188.63C123.12 187.863 123.197 187.25 123.35 186.79H163.14C163.14 187.25 163.063 187.863 162.91 188.63C162.91 189.243 162.91 189.78 162.91 190.24C162.91 195.147 164.137 199.133 166.59 202.2C169.197 205.113 172.8 207.26 177.4 208.64C182 209.867 187.367 210.48 193.5 210.48C196.873 210.48 200.017 210.327 202.93 210.02C205.843 209.713 208.45 209.177 210.75 208.41C213.05 207.643 215.043 206.723 216.73 205.65C218.57 204.423 219.873 203.043 220.64 201.51C221.56 199.823 222.02 197.907 222.02 195.76C222.02 192.233 220.64 189.32 217.88 187.02C215.273 184.72 211.67 182.803 207.07 181.27C202.623 179.737 197.563 178.28 191.89 176.9C186.217 175.52 180.313 174.063 174.18 172.53C168.047 170.997 162.143 169.08 156.47 166.78C150.797 164.48 145.66 161.567 141.06 158.04C136.613 154.513 133.01 150.143 130.25 144.93C127.643 139.563 126.34 133.123 126.34 125.61C126.34 117.33 128.103 110.2 131.63 104.22C135.157 98.0867 139.987 93.1033 146.12 89.27C152.407 85.4367 159.613 82.6767 167.74 80.99C175.867 79.15 184.53 78.23 193.73 78.23C202.777 78.23 211.21 79.15 219.03 80.99C227.003 82.83 234.057 85.7433 240.19 89.73C246.323 93.5633 251.077 98.47 254.45 104.45C257.977 110.277 259.817 117.33 259.97 125.61V128.37H220.41V126.76C220.41 123.233 219.413 120.167 217.42 117.56C215.58 114.8 212.743 112.653 208.91 111.12C205.077 109.433 200.323 108.59 194.65 108.59C188.977 108.59 184.147 109.127 180.16 110.2C176.327 111.273 173.337 112.807 171.19 114.8C169.197 116.793 168.2 119.17 168.2 121.93C168.2 125.303 169.503 128.063 172.11 130.21C174.87 132.357 178.55 134.197 183.15 135.73C187.75 137.263 192.887 138.72 198.56 140.1C204.233 141.327 210.06 142.707 216.04 144.24C222.173 145.62 228.077 147.46 233.75 149.76C239.423 151.907 244.56 154.743 249.16 158.27C253.76 161.643 257.363 165.86 259.97 170.92C262.73 175.98 264.11 182.113 264.11 189.32C264.11 201.893 261.12 212.013 255.14 219.68C249.313 227.347 241.187 232.943 230.76 236.47C220.487 239.997 208.833 241.76 195.8 241.76ZM273.831 239V200.59H313.851V239H273.831ZM316.234 239L375.574 80.99H425.024L484.364 239H440.434L431.004 211.63H367.984L358.554 239H316.234ZM377.874 180.81H420.884L409.614 147.46C409 145.773 408.234 143.703 407.314 141.25C406.547 138.643 405.704 135.96 404.784 133.2C404.017 130.287 403.25 127.373 402.484 124.46C401.717 121.547 400.95 119.017 400.184 116.87H398.574C397.96 119.783 397.04 123.08 395.814 126.76C394.74 130.44 393.59 134.12 392.364 137.8C391.29 141.48 390.294 144.7 389.374 147.46L377.874 180.81ZM486.455 239V200.59H526.475V239H486.455Z" fill="black"/>
<path d="M586.52 75.56V83.24C584.68 83.4 583 84.12 581.48 85.4C580.04 86.68 578.88 88.32 578 90.32C577.2 92.24 576.8 94.36 576.8 96.68H586.04V115.16H566.96V98.72C566.96 93.68 567.88 89.52 569.72 86.24C571.56 82.96 573.96 80.44 576.92 78.68C579.88 76.92 583.08 75.88 586.52 75.56ZM620.876 159.44C616.716 159.44 612.796 159 609.116 158.12C605.516 157.24 602.316 155.96 599.516 154.28C596.796 152.6 594.636 150.52 593.036 148.04C591.516 145.56 590.756 142.68 590.756 139.4C590.756 139.08 590.756 138.8 590.756 138.56C590.756 138.24 590.796 137.96 590.876 137.72H609.476C609.476 137.88 609.476 138.08 609.476 138.32C609.476 138.48 609.476 138.64 609.476 138.8C609.556 140.56 610.116 142.04 611.156 143.24C612.276 144.36 613.716 145.2 615.476 145.76C617.236 146.24 619.156 146.48 621.236 146.48C622.756 146.48 624.356 146.32 626.036 146C627.796 145.68 629.276 145.12 630.476 144.32C631.676 143.52 632.276 142.36 632.276 140.84C632.276 139.16 631.516 137.88 629.996 137C628.556 136.12 626.596 135.4 624.116 134.84C621.716 134.2 619.116 133.6 616.316 133.04C613.516 132.4 610.676 131.68 607.796 130.88C604.996 130.08 602.396 129 599.996 127.64C597.676 126.2 595.796 124.36 594.356 122.12C592.916 119.88 592.196 117.04 592.196 113.6C592.196 109.92 592.956 106.8 594.476 104.24C596.076 101.6 598.236 99.48 600.956 97.88C603.676 96.28 606.796 95.12 610.316 94.4C613.916 93.68 617.716 93.32 621.716 93.32C625.396 93.32 628.876 93.68 632.156 94.4C635.516 95.12 638.516 96.24 641.156 97.76C643.876 99.2 645.996 101.08 647.516 103.4C649.036 105.64 649.796 108.28 649.796 111.32C649.796 111.72 649.756 112.16 649.676 112.64C649.676 113.04 649.676 113.32 649.676 113.48H631.196V112.52C631.196 111.16 630.756 110.04 629.876 109.16C628.996 108.28 627.796 107.6 626.276 107.12C624.756 106.56 623.076 106.28 621.236 106.28C620.036 106.28 618.836 106.4 617.636 106.64C616.516 106.8 615.476 107.08 614.516 107.48C613.556 107.8 612.756 108.28 612.116 108.92C611.556 109.56 611.276 110.36 611.276 111.32C611.276 112.52 611.796 113.52 612.836 114.32C613.876 115.04 615.276 115.64 617.036 116.12C618.876 116.6 620.876 117.12 623.036 117.68C625.996 118.32 629.116 119 632.396 119.72C635.676 120.36 638.756 121.32 641.636 122.6C644.596 123.8 646.956 125.64 648.716 128.12C650.556 130.52 651.476 133.84 651.476 138.08C651.476 142.08 650.676 145.48 649.076 148.28C647.476 151 645.276 153.2 642.476 154.88C639.676 156.48 636.436 157.64 632.756 158.36C629.076 159.08 625.116 159.44 620.876 159.44ZM569 242V159.56H614.36C619.96 159.56 624.72 160.72 628.64 163.04C632.64 165.28 635.68 168.44 637.76 172.52C639.92 176.52 641 181.24 641 186.68C641 192.28 639.88 197.12 637.64 201.2C635.48 205.28 632.36 208.48 628.28 210.8C624.28 213.04 619.48 214.16 613.88 214.16H590.48V242H569ZM590.48 197.6H608.84C612.2 197.6 614.76 196.68 616.52 194.84C618.28 192.92 619.16 190.28 619.16 186.92C619.16 184.52 618.76 182.56 617.96 181.04C617.24 179.52 616.12 178.36 614.6 177.56C613.08 176.68 611.16 176.24 608.84 176.24H590.48V197.6ZM672.754 243.44C665.714 243.44 659.674 242.24 654.634 239.84C649.674 237.44 645.834 233.8 643.114 228.92C640.474 223.96 639.154 217.76 639.154 210.32C639.154 202.88 640.474 196.72 643.114 191.84C645.834 186.96 649.674 183.32 654.634 180.92C659.674 178.52 665.714 177.32 672.754 177.32C679.874 177.32 685.914 178.52 690.874 180.92C695.914 183.32 699.754 186.96 702.394 191.84C705.114 196.72 706.474 202.88 706.474 210.32C706.474 217.76 705.114 223.96 702.394 228.92C699.754 233.8 695.914 237.44 690.874 239.84C685.914 242.24 679.874 243.44 672.754 243.44ZM672.754 229.16C676.034 229.16 678.674 228.52 680.674 227.24C682.754 225.96 684.234 224.12 685.114 221.72C686.074 219.24 686.554 216.2 686.554 212.6V208.16C686.554 204.56 686.074 201.52 685.114 199.04C684.234 196.56 682.754 194.72 680.674 193.52C678.674 192.24 676.034 191.6 672.754 191.6C669.554 191.6 666.914 192.24 664.834 193.52C662.834 194.72 661.354 196.56 660.394 199.04C659.514 201.52 659.074 204.56 659.074 208.16V212.6C659.074 216.2 659.514 219.24 660.394 221.72C661.354 224.12 662.834 225.96 664.834 227.24C666.914 228.52 669.554 229.16 672.754 229.16ZM711.126 242V178.76H727.326L728.766 188.48H729.606C730.566 186.32 731.726 184.4 733.086 182.72C734.526 180.96 736.246 179.6 738.246 178.64C740.326 177.68 742.606 177.2 745.086 177.2C746.526 177.2 747.846 177.36 749.046 177.68C750.246 177.92 751.126 178.2 751.686 178.52V195.68H745.446C742.966 195.68 740.766 196.04 738.846 196.76C737.006 197.4 735.486 198.44 734.286 199.88C733.086 201.24 732.206 202.92 731.646 204.92C731.086 206.92 730.806 209.24 730.806 211.88V242H711.126ZM774.993 243.44C770.913 243.44 767.433 242.84 764.553 241.64C761.753 240.36 759.633 238.48 758.193 236C756.833 233.52 756.153 230.52 756.153 227V193.04H747.873V178.76H756.753L760.833 160.28H775.713V178.76H788.073V193.04H775.713V222.2C775.713 224.44 776.153 226.16 777.033 227.36C777.913 228.56 779.513 229.16 781.833 229.16H788.073V241.4C787.033 241.72 785.713 242.04 784.113 242.36C782.593 242.76 781.033 243.04 779.433 243.2C777.833 243.36 776.353 243.44 774.993 243.44ZM794.645 242V193.04H785.645V178.76H794.645V173.6C794.645 169.2 795.365 165.56 796.805 162.68C798.325 159.72 800.565 157.52 803.525 156.08C806.485 154.64 810.125 153.92 814.445 153.92C815.645 153.92 816.965 154 818.405 154.16C819.845 154.32 821.245 154.56 822.605 154.88C824.045 155.2 825.205 155.52 826.085 155.84V168.2H820.325C818.085 168.2 816.485 168.68 815.525 169.64C814.645 170.6 814.205 172.08 814.205 174.08V178.76H826.085V193.04H814.205V242H794.645ZM856.767 243.44C849.727 243.44 843.687 242.24 838.647 239.84C833.687 237.44 829.847 233.8 827.127 228.92C824.487 223.96 823.167 217.76 823.167 210.32C823.167 202.88 824.487 196.72 827.127 191.84C829.847 186.96 833.687 183.32 838.647 180.92C843.687 178.52 849.727 177.32 856.767 177.32C863.887 177.32 869.927 178.52 874.887 180.92C879.927 183.32 883.767 186.96 886.407 191.84C889.127 196.72 890.487 202.88 890.487 210.32C890.487 217.76 889.127 223.96 886.407 228.92C883.767 233.8 879.927 237.44 874.887 239.84C869.927 242.24 863.887 243.44 856.767 243.44ZM856.767 229.16C860.047 229.16 862.687 228.52 864.687 227.24C866.767 225.96 868.247 224.12 869.127 221.72C870.087 219.24 870.567 216.2 870.567 212.6V208.16C870.567 204.56 870.087 201.52 869.127 199.04C868.247 196.56 866.767 194.72 864.687 193.52C862.687 192.24 860.047 191.6 856.767 191.6C853.567 191.6 850.927 192.24 848.847 193.52C846.847 194.72 845.367 196.56 844.407 199.04C843.527 201.52 843.087 204.56 843.087 208.16V212.6C843.087 216.2 843.527 219.24 844.407 221.72C845.367 224.12 846.847 225.96 848.847 227.24C850.927 228.52 853.567 229.16 856.767 229.16ZM895.138 242V155.12H914.818V242H895.138ZM922.509 170.24V155.12H942.189V170.24H922.509ZM922.509 242V178.76H942.189V242H922.509ZM980.479 243.44C973.439 243.44 967.399 242.24 962.359 239.84C957.399 237.44 953.559 233.8 950.839 228.92C948.199 223.96 946.879 217.76 946.879 210.32C946.879 202.88 948.199 196.72 950.839 191.84C953.559 186.96 957.399 183.32 962.359 180.92C967.399 178.52 973.439 177.32 980.479 177.32C987.599 177.32 993.639 178.52 998.599 180.92C1003.64 183.32 1007.48 186.96 1010.12 191.84C1012.84 196.72 1014.2 202.88 1014.2 210.32C1014.2 217.76 1012.84 223.96 1010.12 228.92C1007.48 233.8 1003.64 237.44 998.599 239.84C993.639 242.24 987.599 243.44 980.479 243.44ZM980.479 229.16C983.759 229.16 986.399 228.52 988.399 227.24C990.479 225.96 991.959 224.12 992.839 221.72C993.799 219.24 994.279 216.2 994.279 212.6V208.16C994.279 204.56 993.799 201.52 992.839 199.04C991.959 196.56 990.479 194.72 988.399 193.52C986.399 192.24 983.759 191.6 980.479 191.6C977.279 191.6 974.639 192.24 972.559 193.52C970.559 194.72 969.079 196.56 968.119 199.04C967.239 201.52 966.799 204.56 966.799 208.16V212.6C966.799 216.2 967.239 219.24 968.119 221.72C969.079 224.12 970.559 225.96 972.559 227.24C974.639 228.52 977.279 229.16 980.479 229.16Z" fill="black"/>
</svg>
